<?xml version="1.0" encoding="UTF-8" standalone="no"?>
<!DOCTYPE svg PUBLIC "-//W3C//DTD SVG 1.1//EN" "http://www.w3.org/Graphics/SVG/1.1/DTD/svg11.dtd">

<!-- Created with Vectornator (http://vectornator.io/) -->
<svg height="100%" stroke-miterlimit="10" style="fill-rule:nonzero;clip-rule:evenodd;stroke-linecap:round;stroke-linejoin:round;" version="1.1" viewBox="0 0 290 490" width="100%" xml:space="preserve" xmlns="http://www.w3.org/2000/svg" xmlns:vectornator="http://vectornator.io" xmlns:xlink="http://www.w3.org/1999/xlink">
<metadata>
<vectornator:setting key="IsTimeLapseWatermarkDisabled" value="false"/>
<vectornator:setting key="UndoHistoryDisabled" value="true"/>
<vectornator:setting key="VNDimensionsVisible" value="true"/>
<vectornator:setting key="VNSnapToGuides" value="true"/>
<vectornator:setting key="WDCMYKEnabledKey" value="false"/>
<vectornator:setting key="WDDisplayWhiteBackground" value="false"/>
<vectornator:setting key="WDDynamicGuides" value="false"/>
<vectornator:setting key="WDGuidesVisible" value="true"/>
<vectornator:setting key="WDIsolateActiveLayer" value="false"/>
<vectornator:setting key="WDOutlineMode" value="false"/>
<vectornator:setting key="WDRulersVisible" value="true"/>
<vectornator:setting key="WDSnapToEdges" value="false"/>
<vectornator:setting key="WDSnapToGrid" value="false"/>
<vectornator:setting key="WDSnapToPoints" value="false"/>
<vectornator:setting key="WDUnits" value="Pixels"/>
</metadata>
<defs>
<filter color-interpolation-filters="sRGB" filterUnits="userSpaceOnUse" height="956.406" id="Filter" width="519.351" x="0" y="0">
<feDropShadow dx="0.202669" dy="-0.44007" flood-color="#4cefff" flood-opacity="1" height="956.406" stdDeviation="1.98643" width="519.351"/>
</filter>
<filter color-interpolation-filters="sRGB" filterUnits="userSpaceOnUse" height="1035.04" id="Filter_2" width="401.27" x="0" y="0">
<feDropShadow dx="0.202669" dy="-0.44007" flood-color="#4cefff" flood-opacity="1" height="1035.04" stdDeviation="1.98643" width="401.27"/>
</filter>
<filter color-interpolation-filters="sRGB" filterUnits="userSpaceOnUse" height="169.665" id="Filter_3" width="31.2303" x="74.4225" y="149.089">
<feDropShadow dx="0.202669" dy="-0.44007" flood-color="#4cefff" flood-opacity="1" height="169.665" stdDeviation="1.98643" width="31.2303"/>
</filter>
<filter color-interpolation-filters="sRGB" filterUnits="userSpaceOnUse" height="180.686" id="Filter_4" width="34.1079" x="83.2173" y="139.268">
<feDropShadow dx="0.202669" dy="-0.44007" flood-color="#4cefff" flood-opacity="1" height="180.686" stdDeviation="1.98643" width="34.1079"/>
</filter>
<filter color-interpolation-filters="sRGB" filterUnits="userSpaceOnUse" height="238.013" id="Filter_5" width="51.3748" x="92.1796" y="204.665">
<feDropShadow dx="0.202669" dy="-0.44007" flood-color="#4cefff" flood-opacity="1" height="238.013" stdDeviation="1.98643" width="51.3748"/>
</filter>
<filter color-interpolation-filters="sRGB" filterUnits="userSpaceOnUse" height="238.026" id="Filter_6" width="53.8609" x="80.746" y="208.064">
<feDropShadow dx="0.202669" dy="-0.44007" flood-color="#4cefff" flood-opacity="1" height="238.026" stdDeviation="1.98643" width="53.8609"/>
</filter>
<filter color-interpolation-filters="sRGB" filterUnits="userSpaceOnUse" height="324.722" id="Filter_7" width="302.522" x="0" y="270.93">
<feDropShadow dx="0.202669" dy="-0.44007" flood-color="#4cefff" flood-opacity="1" height="324.722" stdDeviation="1.98643" width="302.522"/>
</filter>
<filter color-interpolation-filters="sRGB" filterUnits="userSpaceOnUse" height="956.406" id="Filter_8" width="519.351" x="0" y="0">
<feDropShadow dx="0.202669" dy="-0.44007" flood-color="#4cefff" flood-opacity="1" height="956.406" stdDeviation="1.98643" width="519.351"/>
</filter>
<filter color-interpolation-filters="sRGB" filterUnits="userSpaceOnUse" height="1035.04" id="Filter_9" width="401.27" x="0" y="0">
<feDropShadow dx="0.202669" dy="-0.44007" flood-color="#4cefff" flood-opacity="1" height="1035.04" stdDeviation="1.98643" width="401.27"/>
</filter>
<filter color-interpolation-filters="sRGB" filterUnits="userSpaceOnUse" height="169.665" id="Filter_10" width="31.2303" x="181.488" y="127.507">
<feDropShadow dx="0.202669" dy="-0.44007" flood-color="#4cefff" flood-opacity="1" height="169.665" stdDeviation="1.98643" width="31.2303"/>
</filter>
<filter color-interpolation-filters="sRGB" filterUnits="userSpaceOnUse" height="180.686" id="Filter_11" width="34.1079" x="190.282" y="117.686">
<feDropShadow dx="0.202669" dy="-0.44007" flood-color="#4cefff" flood-opacity="1" height="180.686" stdDeviation="1.98643" width="34.1079"/>
</filter>
<filter color-interpolation-filters="sRGB" filterUnits="userSpaceOnUse" height="238.013" id="Filter_12" width="51.3748" x="199.245" y="183.082">
<feDropShadow dx="0.202669" dy="-0.44007" flood-color="#4cefff" flood-opacity="1" height="238.013" stdDeviation="1.98643" width="51.3748"/>
</filter>
<filter color-interpolation-filters="sRGB" filterUnits="userSpaceOnUse" height="238.026" id="Filter_13" width="53.8609" x="187.811" y="186.481">
<feDropShadow dx="0.202669" dy="-0.44007" flood-color="#4cefff" flood-opacity="1" height="238.026" stdDeviation="1.98643" width="53.8609"/>
</filter>
<filter color-interpolation-filters="sRGB" filterUnits="userSpaceOnUse" height="324.722" id="Filter_14" width="302.522" x="47.9886" y="249.348">
<feDropShadow dx="0.202669" dy="-0.44007" flood-color="#4cefff" flood-opacity="1" height="324.722" stdDeviation="1.98643" width="302.522"/>
</filter>
</defs>
<g id="Layer-2" vectornator:layerName="Layer 2"/>
<g id="Layer-3" vectornator:layerName="Layer 3">
<path d="M97.8112 352.247C69.239 354.325 54.0408 334.562 55.6065 312.735C57.9666 279.835 94.4686 242.213 149.268 267.357C156.375 270.618 172.383 281.836 175.71 296.692C181.961 324.602 178.674 349.23 152.176 367.946C121.503 389.61 79.2771 391.072 50.424 373.76C-3.73467 341.265 0.361274 288.035 15.5377 256.31C41.5863 201.858 114.782 171.454 125.139 119.672C130.908 90.8254 123.005 77.1963 118.372 67.2788C117.731 65.9067 104.987 73.3612 96.75 87.6216C89.1952 100.701 86.1229 120.158 84.9245 129.87C82.6646 148.183 86.5342 162.974 88.6687 175.701" fill="none" fill-rule="evenodd" filter="url(#Filter)" opacity="1" stroke="#64f1ff" stroke-linecap="round" stroke-linejoin="round" stroke-width="1.39999" vectornator:shadowAngle="-1.13921" vectornator:shadowColor="#4cefff" vectornator:shadowOffset="0.484496" vectornator:shadowOpacity="1" vectornator:shadowRadius="3.97287"/>
<path d="M78.5373 184.27C76.1897 175.412 72.7593 161.633 70.4639 152.451C63.5978 124.987 77.1706 76.6512 94.297 53.2855C100.672 44.5885 113.149 30.7476 123.581 23.9862C127.478 21.4607 136.958 44.3476 137.629 47.0309C143.47 70.3934 150.055 84.7402 146.39 110.4C143.879 127.978 140.595 142.296 133.661 156.9C122.492 180.427 99.8726 194.62 77.3198 211.589C48.3888 233.358 39.1541 246.963 29.6657 265.129C13.509 296.062 26.7749 324.373 26.7749 324.373C26.7749 324.373 33.2608 342.643 49.1324 355.603C62.537 366.548 81.7051 369.07 100.508 368.373C130.978 367.245 138.619 355.166 143.517 348.793C162.717 323.813 158.206 288.474 128.551 282.543C108.243 278.482 78.0123 294.303 73.3841 317.444C71.0762 328.983 78.1243 335.909 85.357 343.142C86.8125 344.597 98.0863 352.121 98.0863 351.499" fill="none" fill-rule="evenodd" filter="url(#Filter_2)" opacity="1" stroke="#64f1ff" stroke-linecap="round" stroke-linejoin="round" stroke-width="1.39999" vectornator:shadowAngle="-1.13921" vectornator:shadowColor="#4cefff" vectornator:shadowOffset="0.484496" vectornator:shadowOpacity="1" vectornator:shadowRadius="3.97287"/>
<path d="M84.9941 205.806C91.2839 222.918 94.3152 256.293 95.0812 262.038" fill="none" fill-rule="evenodd" filter="url(#Filter_3)" opacity="1" stroke="#64f1ff" stroke-linecap="round" stroke-linejoin="round" stroke-width="1.39999" vectornator:shadowAngle="-1.13921" vectornator:shadowColor="#4cefff" vectornator:shadowOffset="0.484496" vectornator:shadowOpacity="1" vectornator:shadowRadius="3.97287"/>
<path d="M94.7481 199.658C101.973 227.867 104.777 254.567 105.794 259.564" fill="none" fill-rule="evenodd" filter="url(#Filter_4)" opacity="1" stroke="#64f1ff" stroke-linecap="round" stroke-linejoin="round" stroke-width="1.39999" vectornator:shadowAngle="-1.13921" vectornator:shadowColor="#4cefff" vectornator:shadowOffset="0.484496" vectornator:shadowOpacity="1" vectornator:shadowRadius="3.97287"/>
<path d="M109.466 284.164C111.872 312.476 120.626 342.118 126.268 363.179" fill="none" fill-rule="evenodd" filter="url(#Filter_5)" opacity="1" stroke="#64f1ff" stroke-linecap="round" stroke-linejoin="round" stroke-width="1.39999" vectornator:shadowAngle="-1.13921" vectornator:shadowColor="#4cefff" vectornator:shadowOffset="0.484496" vectornator:shadowOpacity="1" vectornator:shadowRadius="3.97287"/>
<path d="M98.8611 287.567C101.642 300.663 108.309 330.514 108.309 330.514C108.309 330.514 113.547 354.07 116.492 366.586" fill="none" fill-rule="evenodd" filter="url(#Filter_6)" opacity="1" stroke="#64f1ff" stroke-linecap="round" stroke-linejoin="round" stroke-width="1.39999" vectornator:shadowAngle="-1.13921" vectornator:shadowColor="#4cefff" vectornator:shadowOffset="0.484496" vectornator:shadowOpacity="1" vectornator:shadowRadius="3.97287"/>
<path d="M131.135 379.332C135.464 395.733 148.519 449.604 139.11 465.44C119.128 499.073 28.4803 495.781 43.6223 441.698C50.1076 418.534 78.4947 415.679 92.3878 433.132C102.482 445.813 96.8497 465.677 79.5896 467.967C78.5582 468.104 71.7611 469.146 72.244 469.858C77.762 478.002 90.8067 477.532 99.1368 478.078C151.101 481.486 124.634 405.918 120.412 382.676" fill="none" fill-rule="evenodd" filter="url(#Filter_7)" opacity="1" stroke="#64f1ff" stroke-linecap="round" stroke-linejoin="round" stroke-width="1.39999" vectornator:shadowAngle="-1.13921" vectornator:shadowColor="#4cefff" vectornator:shadowOffset="0.484496" vectornator:shadowOpacity="1" vectornator:shadowRadius="3.97287"/>
<path d="M204.876 330.665C176.304 332.743 161.106 312.979 162.672 291.153C165.032 258.253 201.534 220.631 256.333 245.775C263.44 249.036 279.449 260.254 282.775 275.11C289.026 303.02 285.74 327.648 259.241 346.364C228.568 368.028 186.342 369.49 157.489 352.178C103.33 319.683 107.426 266.453 122.603 234.728C148.651 180.276 221.848 149.871 232.204 98.0899C237.973 69.2431 230.07 55.614 225.437 45.6965C224.796 44.3244 212.052 51.7789 203.815 66.0393C196.26 79.1186 193.188 98.5757 191.99 108.288C189.73 126.601 193.599 141.392 195.734 154.119" fill="none" fill-rule="evenodd" filter="url(#Filter_8)" opacity="1" stroke="#64f1ff" stroke-linecap="round" stroke-linejoin="round" stroke-width="1.39999" vectornator:shadowAngle="-1.13921" vectornator:shadowColor="#4cefff" vectornator:shadowOffset="0.484496" vectornator:shadowOpacity="1" vectornator:shadowRadius="3.97287"/>
<path d="M185.602 162.688C183.255 153.829 179.824 140.051 177.529 130.869C170.663 103.404 184.236 55.0689 201.362 31.7032C207.737 23.0062 220.214 9.16534 230.646 2.40392C234.543-0.121614 244.023 22.7653 244.694 25.4486C250.535 48.8112 257.12 63.1579 253.455 88.8175C250.944 106.396 247.66 120.714 240.726 135.318C229.557 158.844 206.938 173.038 184.385 190.007C155.454 211.775 146.219 225.381 136.731 243.547C120.574 274.48 133.84 302.791 133.84 302.791C133.84 302.791 140.326 321.061 156.197 334.02C169.602 344.966 188.77 347.488 207.573 346.791C238.043 345.663 245.684 333.584 250.583 327.211C269.782 302.231 265.271 266.892 235.616 260.961C215.308 256.899 185.077 272.721 180.449 295.862C178.141 307.401 185.189 314.327 192.422 321.56C193.878 323.015 205.151 330.539 205.151 329.917" fill="none" fill-rule="evenodd" filter="url(#Filter_9)" opacity="1" stroke="#64f1ff" stroke-linecap="round" stroke-linejoin="round" stroke-width="1.39999" vectornator:shadowAngle="-1.13921" vectornator:shadowColor="#4cefff" vectornator:shadowOffset="0.484496" vectornator:shadowOpacity="1" vectornator:shadowRadius="3.97287"/>
<path d="M192.059 184.224C198.349 201.336 201.38 234.711 202.146 240.456" fill="none" fill-rule="evenodd" filter="url(#Filter_10)" opacity="1" stroke="#64f1ff" stroke-linecap="round" stroke-linejoin="round" stroke-width="1.39999" vectornator:shadowAngle="-1.13921" vectornator:shadowColor="#4cefff" vectornator:shadowOffset="0.484496" vectornator:shadowOpacity="1" vectornator:shadowRadius="3.97287"/>
<path d="M201.813 178.076C209.038 206.284 211.842 232.985 212.86 237.982" fill="none" fill-rule="evenodd" filter="url(#Filter_11)" opacity="1" stroke="#64f1ff" stroke-linecap="round" stroke-linejoin="round" stroke-width="1.39999" vectornator:shadowAngle="-1.13921" vectornator:shadowColor="#4cefff" vectornator:shadowOffset="0.484496" vectornator:shadowOpacity="1" vectornator:shadowRadius="3.97287"/>
<path d="M216.531 262.582C218.937 290.894 227.691 320.535 233.333 341.596" fill="none" fill-rule="evenodd" filter="url(#Filter_12)" opacity="1" stroke="#64f1ff" stroke-linecap="round" stroke-linejoin="round" stroke-width="1.39999" vectornator:shadowAngle="-1.13921" vectornator:shadowColor="#4cefff" vectornator:shadowOffset="0.484496" vectornator:shadowOpacity="1" vectornator:shadowRadius="3.97287"/>
<path d="M205.926 265.985C208.707 279.081 215.374 308.931 215.374 308.931C215.374 308.931 220.612 332.488 223.557 345.004" fill="none" fill-rule="evenodd" filter="url(#Filter_13)" opacity="1" stroke="#64f1ff" stroke-linecap="round" stroke-linejoin="round" stroke-width="1.39999" vectornator:shadowAngle="-1.13921" vectornator:shadowColor="#4cefff" vectornator:shadowOffset="0.484496" vectornator:shadowOpacity="1" vectornator:shadowRadius="3.97287"/>
<path d="M238.2 357.75C242.529 374.151 255.584 428.022 246.176 443.858C226.193 477.491 135.545 474.198 150.687 420.115C157.173 396.952 185.56 394.097 199.453 411.55C209.548 424.231 203.915 444.095 186.655 446.385C185.623 446.522 178.826 447.564 179.309 448.276C184.827 456.419 197.872 455.95 206.202 456.496C258.166 459.904 231.699 384.336 227.477 361.094" fill="none" fill-rule="evenodd" filter="url(#Filter_14)" opacity="1" stroke="#64f1ff" stroke-linecap="round" stroke-linejoin="round" stroke-width="1.39999" vectornator:shadowAngle="-1.13921" vectornator:shadowColor="#4cefff" vectornator:shadowOffset="0.484496" vectornator:shadowOpacity="1" vectornator:shadowRadius="3.97287"/>
</g>
</svg>
