<?xml version="1.0" encoding="UTF-8" standalone="no"?>
<!DOCTYPE svg PUBLIC "-//W3C//DTD SVG 1.1//EN" "http://www.w3.org/Graphics/SVG/1.1/DTD/svg11.dtd">

<!-- Created with Vectornator (http://vectornator.io/) -->
<svg height="100%" stroke-miterlimit="10" style="fill-rule:nonzero;clip-rule:evenodd;stroke-linecap:round;stroke-linejoin:round;" version="1.1" viewBox="0 0 180 480" width="100%" xml:space="preserve" xmlns="http://www.w3.org/2000/svg" xmlns:vectornator="http://vectornator.io" xmlns:xlink="http://www.w3.org/1999/xlink">
<metadata>
<vectornator:setting key="IsTimeLapseWatermarkDisabled" value="false"/>
<vectornator:setting key="UndoHistoryDisabled" value="true"/>
<vectornator:setting key="VNDimensionsVisible" value="true"/>
<vectornator:setting key="VNSnapToGuides" value="true"/>
<vectornator:setting key="WDCMYKEnabledKey" value="false"/>
<vectornator:setting key="WDDisplayWhiteBackground" value="false"/>
<vectornator:setting key="WDDynamicGuides" value="false"/>
<vectornator:setting key="WDGuidesVisible" value="true"/>
<vectornator:setting key="WDIsolateActiveLayer" value="false"/>
<vectornator:setting key="WDOutlineMode" value="false"/>
<vectornator:setting key="WDRulersVisible" value="true"/>
<vectornator:setting key="WDSnapToEdges" value="false"/>
<vectornator:setting key="WDSnapToGrid" value="false"/>
<vectornator:setting key="WDSnapToPoints" value="false"/>
<vectornator:setting key="WDUnits" value="Pixels"/>
</metadata>
<defs>
<filter color-interpolation-filters="sRGB" filterUnits="userSpaceOnUse" height="956.406" id="Filter" width="519.351" x="0" y="0">
<feDropShadow dx="0.202669" dy="-0.44007" flood-color="#4cefff" flood-opacity="1" height="956.406" stdDeviation="1.98643" width="519.351"/>
</filter>
<filter color-interpolation-filters="sRGB" filterUnits="userSpaceOnUse" height="1035.04" id="Filter_2" width="401.27" x="0" y="0">
<feDropShadow dx="0.202669" dy="-0.44007" flood-color="#4cefff" flood-opacity="1" height="1035.04" stdDeviation="1.98643" width="401.27"/>
</filter>
<filter color-interpolation-filters="sRGB" filterUnits="userSpaceOnUse" height="169.665" id="Filter_3" width="31.2303" x="73.153" y="133.855">
<feDropShadow dx="0.202669" dy="-0.44007" flood-color="#4cefff" flood-opacity="1" height="169.665" stdDeviation="1.98643" width="31.2303"/>
</filter>
<filter color-interpolation-filters="sRGB" filterUnits="userSpaceOnUse" height="180.686" id="Filter_4" width="34.1079" x="81.9478" y="124.034">
<feDropShadow dx="0.202669" dy="-0.44007" flood-color="#4cefff" flood-opacity="1" height="180.686" stdDeviation="1.98643" width="34.1079"/>
</filter>
<filter color-interpolation-filters="sRGB" filterUnits="userSpaceOnUse" height="238.013" id="Filter_5" width="51.3748" x="90.9101" y="189.43">
<feDropShadow dx="0.202669" dy="-0.44007" flood-color="#4cefff" flood-opacity="1" height="238.013" stdDeviation="1.98643" width="51.3748"/>
</filter>
<filter color-interpolation-filters="sRGB" filterUnits="userSpaceOnUse" height="238.026" id="Filter_6" width="53.8609" x="79.4764" y="192.829">
<feDropShadow dx="0.202669" dy="-0.44007" flood-color="#4cefff" flood-opacity="1" height="238.026" stdDeviation="1.98643" width="53.8609"/>
</filter>
<filter color-interpolation-filters="sRGB" filterUnits="userSpaceOnUse" height="324.722" id="Filter_7" width="302.522" x="0" y="255.695">
<feDropShadow dx="0.202669" dy="-0.44007" flood-color="#4cefff" flood-opacity="1" height="324.722" stdDeviation="1.98643" width="302.522"/>
</filter>
</defs>
<g id="Layer-2" vectornator:layerName="Layer 2"/>
<g id="Layer-3" vectornator:layerName="Layer 3">
<path d="M96.5416 337.013C67.9694 339.091 52.7713 319.327 54.337 297.501C56.697 264.601 93.199 226.979 147.999 252.123C155.105 255.383 171.114 266.602 174.441 281.457C180.691 309.368 177.405 333.995 150.906 352.712C120.233 374.376 78.0076 375.838 49.1544 358.526C-5.00422 326.031-0.908273 272.8 14.2682 241.075C40.3168 186.623 113.513 156.219 123.869 104.438C129.639 75.5908 121.735 61.9617 117.102 52.0442C116.461 50.6721 103.718 58.1266 95.4804 72.3871C87.9257 85.4663 84.8533 104.923 83.6549 114.635C81.3951 132.949 85.2647 147.739 87.3991 160.467" fill="none" fill-rule="evenodd" filter="url(#Filter)" opacity="1" stroke="#64f1ff" stroke-linecap="round" stroke-linejoin="round" stroke-width="1.39999" vectornator:shadowAngle="-1.13921" vectornator:shadowColor="#4cefff" vectornator:shadowOffset="0.484496" vectornator:shadowOpacity="1" vectornator:shadowRadius="3.97287"/>
<path d="M77.2677 169.036C74.9201 160.177 71.4898 146.398 69.1943 137.216C62.3282 109.752 75.9011 61.4167 93.0275 38.051C99.4022 29.3539 111.88 15.5131 122.311 8.75165C126.208 6.22612 135.689 29.113 136.36 31.7963C142.2 55.1589 148.786 69.5057 145.12 95.1652C142.609 112.744 139.325 127.062 132.392 141.666C121.222 165.192 98.603 179.385 76.0503 196.355C47.1193 218.123 37.8845 231.728 28.3962 249.894C12.2395 280.828 25.5053 309.139 25.5053 309.139C25.5053 309.139 31.9912 327.409 47.8628 340.368C61.2675 351.313 80.4355 353.835 99.2385 353.139C129.708 352.01 137.35 339.932 142.248 333.559C161.447 308.579 156.936 273.24 127.282 267.309C106.973 263.247 76.7427 279.068 72.1145 302.209C69.8066 313.749 76.8548 320.675 84.0875 327.907C85.543 329.363 96.8168 336.886 96.8168 336.265" fill="none" fill-rule="evenodd" filter="url(#Filter_2)" opacity="1" stroke="#64f1ff" stroke-linecap="round" stroke-linejoin="round" stroke-width="1.39999" vectornator:shadowAngle="-1.13921" vectornator:shadowColor="#4cefff" vectornator:shadowOffset="0.484496" vectornator:shadowOpacity="1" vectornator:shadowRadius="3.97287"/>
<path d="M83.7246 190.571C90.0144 207.683 93.0457 241.059 93.8117 246.804" fill="none" fill-rule="evenodd" filter="url(#Filter_3)" opacity="1" stroke="#64f1ff" stroke-linecap="round" stroke-linejoin="round" stroke-width="1.39999" vectornator:shadowAngle="-1.13921" vectornator:shadowColor="#4cefff" vectornator:shadowOffset="0.484496" vectornator:shadowOpacity="1" vectornator:shadowRadius="3.97287"/>
<path d="M93.4786 184.424C100.704 212.632 103.507 239.332 104.525 244.33" fill="none" fill-rule="evenodd" filter="url(#Filter_4)" opacity="1" stroke="#64f1ff" stroke-linecap="round" stroke-linejoin="round" stroke-width="1.39999" vectornator:shadowAngle="-1.13921" vectornator:shadowColor="#4cefff" vectornator:shadowOffset="0.484496" vectornator:shadowOpacity="1" vectornator:shadowRadius="3.97287"/>
<path d="M108.196 268.929C110.602 297.241 119.356 326.883 124.998 347.944" fill="none" fill-rule="evenodd" filter="url(#Filter_5)" opacity="1" stroke="#64f1ff" stroke-linecap="round" stroke-linejoin="round" stroke-width="1.39999" vectornator:shadowAngle="-1.13921" vectornator:shadowColor="#4cefff" vectornator:shadowOffset="0.484496" vectornator:shadowOpacity="1" vectornator:shadowRadius="3.97287"/>
<path d="M97.5915 272.333C100.372 285.429 107.04 315.279 107.04 315.279C107.04 315.279 112.277 338.836 115.222 351.352" fill="none" fill-rule="evenodd" filter="url(#Filter_6)" opacity="1" stroke="#64f1ff" stroke-linecap="round" stroke-linejoin="round" stroke-width="1.39999" vectornator:shadowAngle="-1.13921" vectornator:shadowColor="#4cefff" vectornator:shadowOffset="0.484496" vectornator:shadowOpacity="1" vectornator:shadowRadius="3.97287"/>
<path d="M129.865 364.098C134.194 380.499 147.249 434.37 137.841 450.206C117.859 483.839 27.2107 480.546 42.3527 426.463C48.8381 403.299 77.2252 400.445 91.1182 417.897C101.213 430.579 95.5801 450.442 78.3201 452.732C77.2887 452.869 70.4916 453.911 70.9744 454.624C76.4924 462.767 89.5371 462.297 97.8673 462.844C149.832 466.252 123.365 390.683 119.143 367.441" fill="none" fill-rule="evenodd" filter="url(#Filter_7)" opacity="1" stroke="#64f1ff" stroke-linecap="round" stroke-linejoin="round" stroke-width="1.39999" vectornator:shadowAngle="-1.13921" vectornator:shadowColor="#4cefff" vectornator:shadowOffset="0.484496" vectornator:shadowOpacity="1" vectornator:shadowRadius="3.97287"/>
</g>
</svg>
