<svg height="100%" strokeMiterlimit="10" style="fill-rule:nonzero;clipRule:evenodd;stroke-linecap:round;strokeLinejoin:round;" version="1.1" viewBox="0 0 180 480" width="100%" xmlSpace="preserve" xmlns="http://www.w3.org/2000/svg" xmlnsvectornator="http://vectornator.io" xmlnsXlink="http://www.w3.org/1999/xlink">
            <metadata>
                <vectornatorSetting key="IsTimeLapseWatermarkDisabled" value="false"/>
                <vectornatorSetting key="UndoHistoryDisabled" value="true"/>
                <vectornatorSetting key="VNDimensionsVisible" value="true"/>
                <vectornatorSetting key="VNSnapToGuides" value="true"/>
                <vectornatorSetting key="WDCMYKEnabledKey" value="false"/>
                <vectornatorSetting key="WDDisplayWhiteBackground" value="false"/>
                <vectornatorSetting key="WDDynamicGuides" value="false"/>
                <vectornatorSetting key="WDGuidesVisible" value="true"/>
                <vectornatorSetting key="WDIsolateActiveLayer" value="false"/>
                <vectornatorSetting key="WDOutlineMode" value="false"/>
                <vectornatorSetting key="WDRulersVisible" value="true"/>
                <vectornatorSetting key="WDSnapToEdges" value="false"/>
                <vectornatorSetting key="WDSnapToGrid" value="false"/>
                <vectornatorSetting key="WDSnapToPoints" value="false"/>
                <vectornatorSetting key="WDUnits" value="Pixels"/>
            </metadata>
            <defs>
            <filter colorinterpolation-filters="sRGB" filterUnits="userSpaceOnUse" height="956.406" id="Filter" width="519.351" x="0" y="0">
            <feDropShadow dx="0.202669" dy="-0.44007" floodColor="#4cefff" floodOpacity="1" height="956.406" stdDeviation="1.98643" width="519.351"/>
            </filter>
            <filter colorinterpolation-filters="sRGB" filterUnits="userSpaceOnUse" height="1040.64" id="Filter_2" width="393.378" x="0" y="0">
            <feDropShadow dx="0.202669" dy="-0.44007" floodColor="#4cefff" floodOpacity="1" height="1040.64" stdDeviation="1.98643" width="393.378"/>
            </filter>
            <filter colorinterpolation-filters="sRGB" filterUnits="userSpaceOnUse" height="151.609" id="Filter_3" width="25.5277" x="76.0897" y="145.778">
            <feDropShadow dx="0.202669" dy="-0.44007" floodColor="#4cefff" floodOpacity="1" height="151.609" stdDeviation="1.98643" width="25.5277"/>
            </filter>
            <filter colorinterpolation-filters="sRGB" filterUnits="userSpaceOnUse" height="169.861" id="Filter_4" width="28.0292" x="84.8202" y="131.338">
            <feDropShadow dx="0.202669" dy="-0.44007" floodColor="#4cefff" floodOpacity="1" height="169.861" stdDeviation="1.98643" width="28.0292"/>
            </filter>
            <filter colorinterpolation-filters="sRGB" filterUnits="userSpaceOnUse" height="228.095" id="Filter_5" width="47.3512" x="93.5486" y="192.704">
            <feDropShadow dx="0.202669" dy="-0.44007" floodColor="#4cefff" floodOpacity="1" height="228.095" stdDeviation="1.98643" width="47.3512"/>
            </filter>
            <filter colorinterpolation-filters="sRGB" filterUnits="userSpaceOnUse" height="233.248" id="Filter_6" width="53.241" x="79.683" y="194.422">
            <feDropShadow dx="0.202669" dy="-0.44007" floodColor="#4cefff" floodOpacity="1" height="233.248" stdDeviation="1.98643" width="53.241"/>
            </filter>
            <filter colorinterpolation-filters="sRGB" filterUnits="userSpaceOnUse" height="322.049" id="Filter_7" width="308.224" x="0" y="256.393">
            <feDropShadow dx="0.202669" dy="-0.44007" floodColor="#4cefff" floodOpacity="1" height="322.049" stdDeviation="1.98643" width="308.224"/>
            </filter>
            </defs>
            <g id="Layer-2" vectornatorlayername="Layer 2">
            <path d="M96.5416 337.013C67.9694 339.091 52.7713 319.327 54.337 297.501C56.697 264.601 93.199 226.979 147.999 252.123C155.105 255.383 171.114 266.602 174.441 281.457C180.691 309.368 177.405 333.995 150.906 352.712C120.233 374.376 78.0076 375.838 49.1544 358.526C-5.00422 326.031-0.908273 272.8 14.2682 241.075C40.3168 186.623 113.513 156.219 123.869 104.438C129.639 75.5908 121.735 61.9617 117.102 52.0442C116.461 50.6721 103.718 58.1266 95.4804 72.3871C87.9257 85.4663 84.8533 104.923 83.6549 114.635C81.3951 132.949 83.9355 147.367 87.5632 159.795" fill="none" fillRule="evenodd" filter="url(#Filter)" opacity="1" stroke="#64f1ff" strokeLinecap="round" strokeLinejoin="round" strokeWidth="1.39999" vectornatorshadowangle="-1.13921" vectornatorshadowcolor="#4cefff" vectornatorshadowoffset="0.484496" vectornatorshadowopacity="1" vectornatorshadowradius="3.97287"/>
            <path d="M77.2677 169.036C74.9201 160.177 71.4898 146.398 69.1943 137.216C62.3282 109.752 75.9011 61.4167 93.0275 38.051C99.4022 29.3539 111.88 15.5131 122.311 8.75165C126.208 6.22612 135.689 29.113 136.36 31.7963C142.2 55.1589 148.786 69.5057 145.12 95.1652C142.609 112.744 139.325 127.062 132.392 141.666C121.222 165.192 101.287 183.065 78.734 200.034C49.803 221.803 32.4145 251.233 26.6745 272.282C19.1814 299.759 25.5053 309.139 25.5053 309.139C25.5053 309.139 31.9912 327.409 47.8628 340.368C61.2675 351.313 89.3046 354.783 97.7486 355.11C106.193 355.436 137.35 339.932 142.248 333.559C161.447 308.579 156.936 273.24 127.282 267.309C106.973 263.247 76.7427 279.068 72.1145 302.209C69.8066 313.749 76.8548 320.675 84.0875 327.907C85.543 329.363 96.8168 336.886 96.8168 336.265" fill="none" fillRule="evenodd" filter="url(#Filter_2)" opacity="1" stroke="#64f1ff" strokeLinecap="round" strokeLinejoin="round" strokeWidth="1.39999" vectornatorshadowangle="-1.13921" vectornatorshadowcolor="#4cefff" vectornatorshadowoffset="0.484496" vectornatorshadowopacity="1" vectornatorshadowradius="3.97287"/>
            </g>
            <g id="Layer-3" vectornatorlayername="Layer 3">
            <path d="M84.7605 196.476C85.3665 199.771 86.9941 203.814 87.7064 208.192C90.1204 223.031 91.9065 241.581 92.9467 246.69" fill="none" fillRule="evenodd" filter="url(#Filter_3)" opacity="1" stroke="#64f1ff" strokeLinecap="round" strokeLinejoin="round" strokeWidth="1.39999" vectornatorshadowangle="-1.13921" vectornatorshadowcolor="#4cefff" vectornatorshadowoffset="0.484496" vectornatorshadowopacity="1" vectornatorshadowradius="3.97287"/>
            <path d="M94.3248 188.119C94.8272 190.587 98.0868 203.444 98.0868 203.444C98.0868 203.444 102.327 239.42 103.345 244.417" fill="none" fillRule="evenodd" filter="url(#Filter_4)" opacity="1" stroke="#64f1ff" strokeLinecap="round" strokeLinejoin="round" strokeWidth="1.39999" vectornatorshadowangle="-1.13921" vectornatorshadowcolor="#4cefff" vectornatorshadowoffset="0.484496" vectornatorshadowopacity="1" vectornatorshadowradius="3.97287"/>
            <path d="M109.494 268.897C113.298 296.015 118.546 323.527 124.955 344.605" fill="none" fillRule="evenodd" filter="url(#Filter_5)" opacity="1" stroke="#64f1ff" strokeLinecap="round" strokeLinejoin="round" strokeWidth="1.39999" vectornatorshadowangle="-1.13921" vectornatorshadowcolor="#4cefff" vectornatorshadowoffset="0.484496" vectornatorshadowopacity="1" vectornatorshadowradius="3.97287"/>
            <path d="M97.5915 272.333C101.134 282.961 107.04 315.279 107.04 315.279C107.04 315.279 112.071 337.243 115.016 349.759" fill="none" fillRule="evenodd" filter="url(#Filter_6)" opacity="1" stroke="#64f1ff" strokeLinecap="round" strokeLinejoin="round" strokeWidth="1.39999" vectornatorshadowangle="-1.13921" vectornatorshadowcolor="#4cefff" vectornatorshadowoffset="0.484496" vectornatorshadowopacity="1" vectornatorshadowradius="3.97287"/>
            <path d="M130.844 363.904C132.967 379.905 139.265 398.113 141.586 416.873C142.984 428.172 145.162 440.645 137.841 450.206C114.057 481.267 27.2107 480.546 42.3527 426.463C48.8381 403.299 77.2252 400.445 91.1182 417.897C101.213 430.579 95.5801 450.442 78.3201 452.732C77.2887 452.869 70.4916 453.911 70.9744 454.624C76.4924 462.767 89.5371 462.297 97.8673 462.844C149.832 466.252 122.439 390.388 119.405 367.517" fill="none" fillRule="evenodd" filter="url(#Filter_7)" opacity="1" stroke="#64f1ff" strokeLinecap="round" strokeLinejoin="round" strokeWidth="1.39999" vectornatorshadowangle="-1.13921" vectornatorshadowcolor="#4cefff" vectornatorshadowoffset="0.484496" vectornatorshadowopacity="1" vectornatorshadowradius="3.97287"/>
            </g>
            </svg>